HIERARCHY
ROOT SpineBase
{
  OFFSET 0.000000 0.000000 0.000000
  CHANNELS 6 Xposition Yposition Zposition Zrotation Xrotation Yrotation
  JOINT SpineMid
  {
    OFFSET 0.000000 25.412558 0.000000
    CHANNELS 3 Zrotation Xrotation Yrotation
    JOINT SpineShoulder
    {
      OFFSET -0.125846 18.936278 -0.707389
      CHANNELS 3 Zrotation Xrotation Yrotation
      JOINT Neck
      {
        OFFSET -0.066958 6.287061 -0.522707
        CHANNELS 3 Zrotation Xrotation Yrotation
        JOINT Head
        {
          OFFSET -2.869511 11.993664 0.960638
          CHANNELS 3 Zrotation Xrotation Yrotation
          End Site
          {
            OFFSET 0 0 0
          }
        }
      }
      JOINT ShoulderLeft
      {
        OFFSET -13.273166 -2.457780 5.822169
        CHANNELS 3 Zrotation Xrotation Yrotation
        JOINT ElbowLeft
        {
          OFFSET -8.374301 -22.440477 -15.188582
          CHANNELS 3 Zrotation Xrotation Yrotation
          JOINT WristLeft
          {
            OFFSET 12.100321 11.580566 -15.518325
            CHANNELS 3 Zrotation Xrotation Yrotation
            JOINT HandLeft
            {
              OFFSET 2.480542 -0.722779 -0.104378
              CHANNELS 3 Zrotation Xrotation Yrotation
              JOINT HandTipLeft
              {
                OFFSET 3.009475 1.320370 -2.589656
                CHANNELS 3 Zrotation Xrotation Yrotation
                End Site
                {
                  OFFSET 0 0 0
                }
              }
              JOINT ThumbLeft
              {
                OFFSET 0.011968 -2.980118 -2.099625
                CHANNELS 3 Zrotation Xrotation Yrotation
                End Site
                {
                  OFFSET 0 0 0
                }
              }
            }
          }
        }
      }
      JOINT ShoulderRight
      {
        OFFSET 11.368138 -0.497316 -6.126841
        CHANNELS 3 Zrotation Xrotation Yrotation
        JOINT ElbowRight
        {
          OFFSET 5.567599 -21.467496 -7.454521
          CHANNELS 3 Zrotation Xrotation Yrotation
          JOINT WristRight
          {
            OFFSET -18.583274 8.482492 -6.123501
            CHANNELS 3 Zrotation Xrotation Yrotation
            JOINT HandRight
            {
              OFFSET -4.693168 0.010918 -5.557594
              CHANNELS 3 Zrotation Xrotation Yrotation
              JOINT HandTipRight
              {
                OFFSET -3.070662 1.249545 0.015778
                CHANNELS 3 Zrotation Xrotation Yrotation
                End Site
                {
                  OFFSET 0 0 0
                }
              }
              JOINT ThumbRight
              {
                OFFSET -0.590292 3.465694 -0.106240
                CHANNELS 3 Zrotation Xrotation Yrotation
                End Site
                {
                  OFFSET 0 0 0
                }
              }
            }
          }
        }
      }
    }
  }
  JOINT HipLeft
  {
    OFFSET -5.689189 0.198941 -1.008164
    CHANNELS 3 Zrotation Xrotation Yrotation
    JOINT KneeLeft
    {
      OFFSET 4.301072 -34.187880 3.239977
      CHANNELS 3 Zrotation Xrotation Yrotation
      JOINT AnkleLeft
      {
        OFFSET 5.823760 -32.408784 6.167615
        CHANNELS 3 Zrotation Xrotation Yrotation
        JOINT FootLeft
        {
          OFFSET -1.212743 -3.210711 -7.385053
          CHANNELS 3 Zrotation Xrotation Yrotation
          End Site
          {
            OFFSET 0 0 0
          }
        }
      }
    }
  }
  JOINT HipRight
  {
    OFFSET 5.239606 1.205914 -5.107300
    CHANNELS 3 Zrotation Xrotation Yrotation
    JOINT KneeRight
    {
      OFFSET 5.208648 -32.820505 0.692682
      CHANNELS 3 Zrotation Xrotation Yrotation
      JOINT AnkleRight
      {
        OFFSET 1.450332 -34.082225 7.242392
        CHANNELS 3 Zrotation Xrotation Yrotation
        JOINT FootRight
        {
          OFFSET -3.199121 -2.215751 -9.226171
          CHANNELS 3 Zrotation Xrotation Yrotation
          End Site
          {
            OFFSET 0 0 0
          }
        }
      }
    }
  }
}
MOTION
Frames: 10
Frame Time: 0.033333
24.262204 72.090661 365.887240 -0.507947 0.673594 20.727953 -0.287418 0.311487 -20.752981 -0.107898 -0.086819 -0.048660 3.223183 -3.630118 -0.693042 0.000000 0.000000 0.000000 -8.743591 17.940005 0.980874 -6.530440 -12.290782 -27.951582 -21.336179 30.854237 176.628065 -41.110314 -26.384670 -101.642138 0.000000 0.000000 0.000000 0.000000 0.000000 0.000000 -1.207600 0.987842 1.307403 4.415168 -3.135352 -2.191663 -16.058122 13.309358 16.011729 31.189474 -26.968334 -19.522787 0.000000 0.000000 0.000000 0.000000 0.000000 0.000000 0.236696 -0.809757 -20.723294 0.364196 -1.286706 -0.157402 4.612850 -7.548201 -9.492379 0.000000 0.000000 0.000000 0.236696 -0.809757 -20.723294 -0.000000 0.000000 0.000000 -0.000000 0.000000 0.000000 0.000000 0.000000 0.000000
24.264602 72.043615 365.901093 -0.449424 0.586966 20.110619 -0.265173 0.234389 -20.133307 -0.052604 -0.112364 -0.039544 3.251167 -3.623026 -0.758122 0.000000 0.000000 0.000000 -8.613617 11.774641 2.503523 7.272119 -26.591432 9.539875 -22.574989 41.615154 151.408048 -43.586614 -39.570815 -90.482712 0.000000 0.000000 0.000000 0.000000 0.000000 0.000000 5.325402 -2.243801 -1.798425 -5.189119 -0.747668 -3.333298 -15.982115 16.062795 14.347582 25.066753 -26.015980 -17.216729 0.000000 0.000000 0.000000 0.000000 0.000000 0.000000 0.220227 -0.705696 -20.106960 0.314620 -1.230216 -0.157423 0.263332 1.504952 -1.286616 0.000000 0.000000 0.000000 0.399543 0.156374 -19.970497 0.661559 -1.578395 -0.039214 -0.536111 0.706486 -0.080675 0.000000 0.000000 0.000000
24.281756 71.965952 365.899976 -0.359497 0.489390 19.368028 -0.262949 0.178276 -19.388261 -0.031126 -0.125290 -0.033100 3.301942 -3.569613 -0.806723 0.000000 0.000000 0.000000 -7.484585 3.382617 4.176048 29.880933 -22.127254 46.958109 -26.679318 55.369117 129.050902 -52.223781 -46.032337 -102.165895 0.000000 0.000000 0.000000 0.000000 0.000000 0.000000 12.352142 -5.102560 -4.587527 -16.921171 0.674370 -4.104035 -9.728062 12.176707 26.536354 13.039785 -23.628076 -31.015564 0.000000 0.000000 0.000000 0.000000 0.000000 0.000000 0.176866 -0.580911 -19.365596 0.288369 -1.170217 -0.152104 -2.747075 6.488183 3.529039 0.000000 0.000000 0.000000 0.388494 0.457632 -19.201724 0.356983 -2.034458 -0.152105 -0.217859 0.983502 -0.002577 0.000000 0.000000 0.000000
24.309229 71.868336 365.904454 -0.254452 0.399238 18.656191 0.113375 -0.459654 -18.654850 -0.000000 0.000000 0.000000 2.710841 -3.176351 -0.899024 0.000000 0.000000 0.000000 -8.358169 -5.545043 7.363085 35.267928 -16.312758 51.020080 -20.177627 63.732018 119.007534 -54.268336 -43.030577 -104.333812 0.000000 0.000000 0.000000 0.000000 0.000000 0.000000 12.353498 -6.561459 -5.252514 -19.025110 1.510710 -5.600068 -7.926565 11.342516 32.723079 10.928086 -22.030763 -33.843510 0.000000 0.000000 0.000000 0.000000 0.000000 0.000000 0.113375 -0.459654 -18.654850 0.240668 -1.054451 -0.141171 -5.592855 12.627067 6.909052 0.000000 0.000000 0.000000 0.311698 0.743709 -18.468391 0.472912 -2.242036 -0.160539 -0.181962 1.325506 -0.843442 0.000000 0.000000 0.000000
24.355389 71.753715 365.902841 -0.137777 0.325640 18.071848 0.029965 -0.352315 -18.071364 -0.000000 0.000000 0.000000 2.984602 -3.365547 -0.953131 0.000000 0.000000 0.000000 -6.200869 -14.897744 9.616111 35.026637 -8.721300 46.570177 -27.836895 61.418281 117.186113 -52.862753 -47.463632 -103.933226 0.000000 0.000000 0.000000 0.000000 0.000000 0.000000 9.168042 -7.167744 -4.478323 -14.139526 1.750696 -7.434693 -6.697997 9.482711 41.258184 6.981901 -18.283699 -40.430461 0.000000 0.000000 0.000000 0.000000 0.000000 0.000000 0.029965 -0.352315 -18.071364 0.347674 -0.763783 -0.068645 -6.773098 10.408753 9.693437 0.000000 0.000000 0.000000 0.141504 0.964824 -17.873997 1.000233 -2.112456 -0.059291 -0.568004 1.100097 -1.062175 0.000000 0.000000 0.000000
24.413617 71.656886 365.896941 -0.014628 0.253464 17.703588 -0.063142 -0.245909 -17.703691 -0.000000 0.000000 0.000000 3.347176 -3.524428 -1.004083 0.000000 0.000000 0.000000 -3.751963 -22.202257 11.553121 32.449141 -1.927049 38.579248 -32.356857 57.502797 117.351981 -51.106758 -54.029927 -106.644733 0.000000 0.000000 0.000000 0.000000 0.000000 0.000000 8.824752 -7.327831 -4.414935 -12.450536 1.267497 -8.103459 1.350214 6.006718 47.652315 9.711247 -18.003913 -49.056009 0.000000 0.000000 0.000000 0.000000 0.000000 0.000000 -0.063142 -0.245909 -17.703691 -0.000000 0.000000 0.000000 -6.496390 6.870405 10.963133 0.000000 0.000000 0.000000 -0.077363 1.118472 -17.506864 1.501454 -1.945451 0.040068 -0.910845 0.906890 -1.250097 0.000000 0.000000 0.000000
24.478446 71.613576 365.892638 0.115509 0.183122 17.684165 -0.165678 -0.139380 -17.684551 -0.000000 0.000000 0.000000 3.651484 -3.681877 -1.051023 0.000000 0.000000 0.000000 -1.277818 -26.245083 12.399790 33.618373 3.546887 37.958583 -55.419689 44.296537 122.544302 -60.763496 -67.567340 -124.438055 0.000000 0.000000 0.000000 0.000000 0.000000 0.000000 8.385984 -7.172003 -4.262978 -10.363922 0.350547 -9.002556 6.262252 4.745969 55.169337 17.288131 -18.763380 -48.244325 0.000000 0.000000 0.000000 0.000000 0.000000 0.000000 -0.165678 -0.139380 -17.684551 -0.000000 0.000000 0.000000 -4.705248 2.277886 9.459615 0.000000 0.000000 0.000000 -0.345605 1.237138 -17.495606 2.176672 -1.603079 0.182321 -1.405837 0.585116 -1.415707 0.000000 0.000000 0.000000
24.537057 71.663596 365.905087 0.220301 0.111235 18.085549 -0.243948 -0.037349 -18.085842 -0.000000 0.000000 0.000000 3.941824 -3.853242 -1.099318 0.000000 0.000000 0.000000 -0.582391 -27.447455 12.731467 34.967564 6.157328 37.609203 -54.726194 49.357777 103.168683 -28.112555 -66.074095 -84.900245 0.000000 0.000000 0.000000 0.000000 0.000000 0.000000 7.732496 -6.461342 -3.936182 -7.585091 -0.732915 -9.036042 12.541891 3.953996 65.525853 22.408327 -19.355632 -50.840619 0.000000 0.000000 0.000000 0.000000 0.000000 0.000000 -0.243948 -0.037349 -18.085842 -0.000000 0.000000 0.000000 -4.430238 0.358220 9.834608 0.000000 0.000000 0.000000 -0.570997 1.272267 -17.915791 2.652026 -1.260682 0.288019 -1.739695 0.343455 -1.532179 0.000000 0.000000 0.000000
24.584884 71.823992 365.933764 0.288201 0.039414 18.934501 -0.285396 0.056236 -18.934460 -0.000000 0.000000 0.000000 4.317038 -3.974641 -1.140242 0.000000 0.000000 0.000000 -2.033573 -23.769756 11.473411 37.228173 6.247300 39.892302 -29.646158 56.717992 55.298183 -18.806009 -45.003292 -45.483372 0.000000 0.000000 0.000000 0.000000 0.000000 0.000000 6.803043 -5.499266 -3.468651 -4.616865 -2.061904 -9.235182 13.277099 4.458027 71.212618 19.630181 -18.046013 -56.079304 0.000000 0.000000 0.000000 0.000000 0.000000 0.000000 -0.285396 0.056236 -18.934460 -0.000000 0.000000 0.000000 -4.302223 -0.304713 9.899178 0.000000 0.000000 0.000000 -0.737069 1.220368 -18.794738 2.852867 -0.961960 0.341569 -1.834828 0.232528 -1.630706 0.000000 0.000000 0.000000
24.603247 71.991648 365.966938 0.352397 -0.039293 19.471469 -0.319146 0.154512 -19.470918 -0.000000 0.000000 0.000000 4.426208 -4.009115 -1.151821 0.000000 0.000000 0.000000 -2.055750 -23.191682 11.193032 34.179937 4.038643 38.389468 -15.116064 56.244706 49.714930 -38.889249 -28.258333 -52.674634 0.000000 0.000000 0.000000 0.000000 0.000000 0.000000 5.620668 -4.416445 -2.883684 -0.935035 -2.914497 -7.950063 10.793769 3.765083 70.535805 15.485826 -15.762825 -59.932857 0.000000 0.000000 0.000000 0.000000 0.000000 0.000000 -0.319146 0.154512 -19.470918 -0.000000 0.000000 0.000000 -5.791301 3.071877 11.368146 0.000000 0.000000 0.000000 -0.835544 1.248872 -19.345968 2.817260 -0.925171 0.333599 -1.730723 0.290440 -1.698666 0.000000 0.000000 0.000000
